<svg width="18" height="25" viewBox="0 0 18 25" fill="none" xmlns="http://www.w3.org/2000/svg">
<path d="M16.0087 11.1184L9.79406 1.22219C9.70389 1.09564 9.58478 0.99247 9.44666 0.921284C9.30853 0.850098 9.15539 0.812958 9 0.812958C8.84461 0.812958 8.69147 0.850098 8.55334 0.921284C8.41522 0.99247 8.29611 1.09564 8.20594 1.22219L1.96313 11.1653C1.09583 12.5643 0.612718 14.1672 0.5625 15.8125C0.5625 18.0503 1.45145 20.1964 3.03379 21.7787C4.61612 23.3611 6.76224 24.25 9 24.25C11.2378 24.25 13.3839 23.3611 14.9662 21.7787C16.5486 20.1964 17.4375 18.0503 17.4375 15.8125C17.3836 14.1492 16.8907 12.5297 16.0087 11.1184ZM9 22.375C7.2602 22.3728 5.5923 21.6807 4.36208 20.4504C3.13185 19.2202 2.43973 17.5523 2.4375 15.8125C2.48733 14.5015 2.88113 13.2267 3.57938 12.1159L4.45594 10.7191L13.9003 20.1634C13.2869 20.8584 12.5328 21.415 11.688 21.7965C10.8432 22.1779 9.92694 22.3745 9 22.375Z" fill="black"/>
</svg>
