<svg width="24" height="24" viewBox="0 0 24 24" fill="none" xmlns="http://www.w3.org/2000/svg">
<path d="M12 4C11.7167 4 11.4793 3.904 11.288 3.712C11.096 3.52067 11 3.28333 11 3V2C11 1.71667 11.096 1.479 11.288 1.287C11.4793 1.09567 11.7167 1 12 1C12.2833 1 12.521 1.09567 12.713 1.287C12.9043 1.479 13 1.71667 13 2V3C13 3.28333 12.9043 3.52067 12.713 3.712C12.521 3.904 12.2833 4 12 4ZM12 23C11.7167 23 11.4793 22.904 11.288 22.712C11.096 22.5207 11 22.2833 11 22V21C11 20.7167 11.096 20.4793 11.288 20.288C11.4793 20.096 11.7167 20 12 20C12.2833 20 12.521 20.096 12.713 20.288C12.9043 20.4793 13 20.7167 13 21V22C13 22.2833 12.9043 22.5207 12.713 22.712C12.521 22.904 12.2833 23 12 23ZM21 13C20.7167 13 20.4793 12.904 20.288 12.712C20.096 12.5207 20 12.2833 20 12C20 11.7167 20.096 11.479 20.288 11.287C20.4793 11.0957 20.7167 11 21 11H22C22.2833 11 22.5207 11.0957 22.712 11.287C22.904 11.479 23 11.7167 23 12C23 12.2833 22.904 12.5207 22.712 12.712C22.5207 12.904 22.2833 13 22 13H21ZM2 13C1.71667 13 1.47933 12.904 1.288 12.712C1.096 12.5207 1 12.2833 1 12C1 11.7167 1.096 11.479 1.288 11.287C1.47933 11.0957 1.71667 11 2 11H3C3.28333 11 3.521 11.0957 3.713 11.287C3.90433 11.479 4 11.7167 4 12C4 12.2833 3.90433 12.5207 3.713 12.712C3.521 12.904 3.28333 13 3 13H2ZM18 6C17.8167 5.81667 17.725 5.59167 17.725 5.325C17.725 5.05833 17.8167 4.81667 18 4.6L18.35 4.225C18.5333 4.025 18.7667 3.925 19.05 3.925C19.3333 3.925 19.575 4.025 19.775 4.225C19.975 4.425 20.0793 4.67067 20.088 4.962C20.096 5.254 19.9917 5.49167 19.775 5.675L19.4 6.025C19.2167 6.20833 18.9873 6.3 18.712 6.3C18.4373 6.3 18.2 6.2 18 6ZM4.225 19.775C4.025 19.575 3.921 19.3293 3.913 19.038C3.90433 18.746 4.00833 18.5083 4.225 18.325L4.6 17.975C4.78333 17.7917 5.01233 17.7 5.287 17.7C5.56233 17.7 5.8 17.8 6 18C6.18333 18.1833 6.275 18.4127 6.275 18.688C6.275 18.9627 6.18333 19.2 6 19.4L5.65 19.775C5.46667 19.975 5.23333 20.075 4.95 20.075C4.66667 20.075 4.425 19.975 4.225 19.775ZM18.325 19.775L17.975 19.4C17.7917 19.2167 17.7 18.9873 17.7 18.712C17.7 18.4373 17.8 18.2 18 18C18.1833 17.8167 18.4127 17.725 18.688 17.725C18.9627 17.725 19.2 17.8167 19.4 18L19.775 18.35C19.975 18.5333 20.075 18.7667 20.075 19.05C20.075 19.3333 19.975 19.575 19.775 19.775C19.575 19.975 19.3293 20.079 19.038 20.087C18.746 20.0957 18.5083 19.9917 18.325 19.775ZM4.6 6L4.225 5.65C4.025 5.46667 3.925 5.23333 3.925 4.95C3.925 4.66667 4.025 4.425 4.225 4.225C4.425 4.025 4.671 3.92067 4.963 3.912C5.25433 3.904 5.49167 4.00833 5.675 4.225L6.025 4.6C6.20833 4.78333 6.3 5.01233 6.3 5.287C6.3 5.56233 6.2 5.8 6 6C5.81667 6.18333 5.59167 6.275 5.325 6.275C5.05833 6.275 4.81667 6.18333 4.6 6ZM12 18C10.3333 18 8.91667 17.4167 7.75 16.25C6.58333 15.0833 6 13.6667 6 12C6 10.3333 6.58333 8.91667 7.75 7.75C8.91667 6.58333 10.3333 6 12 6C13.6667 6 15.0833 6.58333 16.25 7.75C17.4167 8.91667 18 10.3333 18 12C18 13.6667 17.4167 15.0833 16.25 16.25C15.0833 17.4167 13.6667 18 12 18ZM12 16C13.1167 16 14.0627 15.6123 14.838 14.837C15.6127 14.0623 16 13.1167 16 12C16 10.8833 15.6127 9.93733 14.838 9.162C14.0627 8.38733 13.1167 8 12 8C10.8833 8 9.93767 8.38733 9.163 9.162C8.38767 9.93733 8 10.8833 8 12C8 13.1167 8.38767 14.0623 9.163 14.837C9.93767 15.6123 10.8833 16 12 16Z" fill="black"/>
</svg>
